<svg xmlns="http://www.w3.org/2000/svg" xmlns:xlink="http://www.w3.org/1999/xlink" version="1.0" x="0" y="0" width="2400" height="1336.1535057837261" viewBox="82.68290435791016 76.38789855957032 174.63419128417968 97.22420288085938" preserveAspectRatio="xMidYMid meet" color-interpolation-filters="sRGB"><g><defs><linearGradient id="92" x1="0%" y1="0%" x2="100%" y2="0%"><stop offset="0%" stop-color="#fa71cd"></stop> <stop offset="100%" stop-color="#9b59b6"></stop></linearGradient><linearGradient id="93" x1="0%" y1="0%" x2="100%" y2="0%"><stop offset="0%" stop-color="#f9d423"></stop> <stop offset="100%" stop-color="#f83600"></stop></linearGradient><linearGradient id="94" x1="0%" y1="0%" x2="100%" y2="0%"><stop offset="0%" stop-color="#0064d2"></stop> <stop offset="100%" stop-color="#1cb0f6"></stop></linearGradient><linearGradient id="95" x1="0%" y1="0%" x2="100%" y2="0%"><stop offset="0%" stop-color="#f00978"></stop> <stop offset="100%" stop-color="#3f51b1"></stop></linearGradient><linearGradient id="96" x1="0%" y1="0%" x2="100%" y2="0%"><stop offset="0%" stop-color="#7873f5"></stop> <stop offset="100%" stop-color="#ec77ab"></stop></linearGradient><linearGradient id="97" x1="0%" y1="0%" x2="100%" y2="0%"><stop offset="0%" stop-color="#f9d423"></stop> <stop offset="100%" stop-color="#e14fad"></stop></linearGradient><linearGradient id="98" x1="0%" y1="0%" x2="100%" y2="0%"><stop offset="0%" stop-color="#009efd"></stop> <stop offset="100%" stop-color="#2af598"></stop></linearGradient><linearGradient id="99" x1="0%" y1="0%" x2="100%" y2="0%"><stop offset="0%" stop-color="#ffcc00"></stop> <stop offset="100%" stop-color="#00b140"></stop></linearGradient><linearGradient id="100" x1="0%" y1="0%" x2="100%" y2="0%"><stop offset="0%" stop-color="#d51007"></stop> <stop offset="100%" stop-color="#ff8177"></stop></linearGradient><linearGradient id="102" x1="0%" y1="0%" x2="100%" y2="0%"><stop offset="0%" stop-color="#a2b6df"></stop> <stop offset="100%" stop-color="#0c3483"></stop></linearGradient><linearGradient id="103" x1="0%" y1="0%" x2="100%" y2="0%"><stop offset="0%" stop-color="#7ac5d8"></stop> <stop offset="100%" stop-color="#eea2a2"></stop></linearGradient><linearGradient id="104" x1="0%" y1="0%" x2="100%" y2="0%"><stop offset="0%" stop-color="#00ecbc"></stop> <stop offset="100%" stop-color="#007adf"></stop></linearGradient><linearGradient id="105" x1="0%" y1="0%" x2="100%" y2="0%"><stop offset="0%" stop-color="#b88746"></stop> <stop offset="100%" stop-color="#fdf5a6"></stop></linearGradient></defs><g fill="#ed9f40" class="bordersvg b-d1" transform="translate(94.39500427246094,78.0999984741211)"><polyline stroke="#ed9f40" stroke-width="3" fill-opacity="0" fill="#000000" points="70.60499572753906,30 70.60499572753906,10 151.20999145507812,10 151.20999145507812,93.79999923706055 70.60499572753906,93.79999923706055 70.60499572753906,73.79999923706055"></polyline> <polyline stroke="#ed9f40" stroke-width="3" fill-opacity="0" fill="#000000" points="80.60499572753906,10 80.60499572753906,0 161.20999145507812,0 161.20999145507812,83.79999923706055 151.20999145507812,83.79999923706055"></polyline> <g transform="translate(-10,30)"><g><rect stroke-width="2" class="i-icon-bg" x="0" y="0" width="161.20999145507812" height="43.79999923706055" fill-opacity="0"></rect> </g> <g transform="translate(10,3)"><g fill-rule="" class="tp-name"><g transform="scale(1)"><g><path d="M15.16-30.24L8.73 0-0.45 0 5.94-30.24 15.16-30.24ZM27.36-19.84L27.36-19.84Q32.71-19.84 35.14-17.95L35.14-17.95Q37.71-15.97 37.71-11.38L37.71-11.38Q37.71-8.55 36.77-6.28 35.82-4 34.11-2.52L34.11-2.52Q30.69 0.36 24.21 0.36L24.21 0.36Q18.67 0.36 16.29-1.75L16.29-1.75Q13.72-3.96 13.72-8.37L13.72-8.37Q13.72-11.29 14.92-13.68 16.11-16.06 18.36-17.64L18.36-17.64Q21.64-19.84 27.36-19.84ZM24.3-2.7L24.3-2.7Q25.42-2.7 26.26-3.96 27.09-5.22 27.58-7.04 28.08-8.87 28.33-10.82 28.57-12.78 28.57-14.22L28.57-14.22Q28.57-15.48 28.33-16.13 28.08-16.79 27.27-16.79L27.27-16.79Q26.05-16.79 25.18-15.48 24.3-14.17 23.76-12.38 23.22-10.57 22.97-8.69 22.72-6.79 22.72-5.63L22.72-5.63Q22.72-2.7 24.3-2.7ZM52.83-5.35L55.84-19.35 65.03-19.35 60.89 0 53.59 0 52.79-2.88 52.52-2.88Q51.34-1.48 49.34-0.56 47.34 0.36 45.32 0.36L45.32 0.36Q42.62 0.36 41.09-1.01 39.55-2.38 39.55-4.59L39.55-4.59Q39.55-5.71 39.94-7.4 40.32-9.09 40.64-10.57L40.64-10.57 42.53-19.35 51.66-19.35 49.41-8.82Q49.32-8.46 49.23-7.96 49.14-7.47 49.05-7 48.96-6.52 48.89-6.1 48.83-5.67 48.83-5.4L48.83-5.4Q48.83-4.72 49.12-4.25 49.41-3.78 50.18-3.78L50.18-3.78Q50.98-3.78 51.7-4.32 52.43-4.86 52.83-5.35L52.83-5.35ZM81.72-16.43L83.75-19.35 91.03-19.35 87.34-1.84Q86.94 0.18 86 1.89 85.05 3.6 83.36 4.86 81.68 6.12 79.13 6.84 76.59 7.56 72.95 7.56L72.95 7.56Q72.27 7.56 71.33 7.54 70.38 7.51 69.39 7.49 68.4 7.47 67.5 7.42 66.6 7.38 66.06 7.33L66.06 7.33 66.92 4.09Q68.36 4.32 69.86 4.34 71.37 4.37 72.45 4.37L72.45 4.37Q73.8 4.37 74.72 4.12 75.65 3.87 76.25 3.33 76.86 2.79 77.24 1.89 77.63 0.99 77.85-0.32L77.85-0.32 78.39-3.24 78.08-3.24Q77.81-2.83 77.29-2.27 76.77-1.71 75.96-1.19 75.15-0.67 74.05-0.34 72.95 0 71.55 0L71.55 0Q69.98 0 68.87-0.47 67.77-0.94 67.09-1.78 66.42-2.61 66.11-3.76 65.79-4.91 65.79-6.25L65.79-6.25Q65.79-6.84 65.88-8.05 65.97-9.27 66.31-10.8 66.65-12.33 67.3-13.93 67.95-15.52 69.05-16.83 70.16-18.13 71.8-18.99 73.44-19.84 75.78-19.84L75.78-19.84Q76.5-19.84 77.36-19.71 78.21-19.57 79.02-19.21 79.83-18.86 80.46-18.18 81.09-17.5 81.45-16.43L81.45-16.43 81.72-16.43ZM78.71-15.43L78.71-15.43Q77.63-15.43 76.91-14.29 76.19-13.14 75.73-11.61 75.29-10.08 75.08-8.57 74.88-7.06 74.88-6.34L74.88-6.34Q74.88-5.44 75.17-4.84 75.47-4.23 76.23-4.23L76.23-4.23Q76.68-4.23 77.11-4.46 77.54-4.68 77.92-4.97 78.3-5.26 78.59-5.58 78.89-5.89 79.02-6.08L79.02-6.08 80.69-13.95Q80.33-14.45 79.85-14.94 79.38-15.43 78.71-15.43ZM93.78-13.68L94.64-17.68Q96.93-18.81 99.34-19.33 101.75-19.84 104.72-19.84L104.72-19.84Q107.6-19.84 109.49-19.39 111.38-18.95 112.5-18.09 113.63-17.23 114.08-16.06 114.53-14.89 114.53-13.41L114.53-13.41Q114.53-12.55 114.41-11.56 114.3-10.57 114.17-9.9L114.17-9.9 112.05 0 104.81 0 104-2.88 103.73-2.88Q102.29-1.3 100.37-0.47 98.46 0.36 96.57 0.36L96.57 0.36Q95.49 0.36 94.46 0.04 93.42-0.27 92.61-0.92 91.8-1.57 91.31-2.59 90.81-3.6 90.81-5.04L90.81-5.04Q90.81-7.38 92.09-8.75 93.38-10.13 95.47-10.82 97.56-11.52 100.19-11.7 102.83-11.88 105.48-11.88L105.48-11.88Q105.57-12.33 105.71-13.16 105.84-13.99 105.84-14.63L105.84-14.63Q105.84-15.43 105.41-16.13 104.99-16.83 103.64-16.83L103.64-16.83Q102.06-16.83 101.32-15.91 100.58-14.98 100.35-13.68L100.35-13.68 93.78-13.68ZM104.27-6.3L104.99-9.76 104.18-9.76Q102.87-9.76 101.95-9.43 101.03-9.09 100.46-8.55 99.9-8.01 99.63-7.33 99.36-6.66 99.36-5.98L99.36-5.98Q99.36-4.91 99.92-4.37 100.49-3.82 101.25-3.82L101.25-3.82Q102.2-3.82 103.12-4.5 104.04-5.17 104.27-6.3L104.27-6.3ZM130.41-19.84L130.41-19.84Q135.77-19.84 138.2-17.95L138.2-17.95Q140.76-15.97 140.76-11.38L140.76-11.38Q140.76-8.55 139.81-6.28 138.87-4 137.16-2.52L137.16-2.52Q133.74 0.36 127.26 0.36L127.26 0.36Q121.73 0.36 119.34-1.75L119.34-1.75Q116.78-3.96 116.78-8.37L116.78-8.37Q116.78-11.29 117.97-13.68 119.16-16.06 121.41-17.64L121.41-17.64Q124.7-19.84 130.41-19.84ZM127.35-2.7L127.35-2.7Q128.48-2.7 129.31-3.96 130.14-5.22 130.64-7.04 131.13-8.87 131.38-10.82 131.63-12.78 131.63-14.22L131.63-14.22Q131.63-15.48 131.38-16.13 131.13-16.79 130.32-16.79L130.32-16.79Q129.11-16.79 128.23-15.48 127.35-14.17 126.81-12.38 126.27-10.57 126.02-8.69 125.78-6.79 125.78-5.63L125.78-5.63Q125.78-2.7 127.35-2.7Z" transform="translate(0.45000001788139343, 30.239999771118164)"></path></g> </g></g> </g></g></g><defs v-gra="od"></defs></g></svg>